<svg width="36" height="36" viewBox="0 0 36 36" fill="none" xmlns="http://www.w3.org/2000/svg">
<rect width="36" height="36" rx="18" fill="#FBF2D3"/>
<path d="M20 17.5099H22.42C22.5516 17.5107 22.6821 17.4855 22.8039 17.4357C22.9257 17.386 23.0366 17.3126 23.13 17.2199L27.71 12.6399C27.8037 12.547 27.8781 12.4364 27.9289 12.3145C27.9797 12.1927 28.0058 12.062 28.0058 11.9299C28.0058 11.7979 27.9797 11.6672 27.9289 11.5454C27.8781 11.4235 27.8037 11.3129 27.71 11.2199L25.29 8.79995C25.197 8.70622 25.0864 8.63183 24.9646 8.58106C24.8427 8.53029 24.712 8.50415 24.58 8.50415C24.448 8.50415 24.3173 8.53029 24.1954 8.58106C24.0736 8.63183 23.963 8.70622 23.87 8.79995L19.29 13.3799C19.1073 13.5716 19.0037 13.8252 19 14.0899V16.5099C19 16.7752 19.1054 17.0295 19.2929 17.2171C19.4804 17.4046 19.7348 17.5099 20 17.5099ZM21 14.5099L24.58 10.9299L25.58 11.9299L22 15.5099H21V14.5099ZM27 16.5099C26.7348 16.5099 26.4804 16.6153 26.2929 16.8028C26.1054 16.9904 26 17.2447 26 17.5099V24.5099C26 24.7752 25.8946 25.0295 25.7071 25.2171C25.5196 25.4046 25.2652 25.5099 25 25.5099H11C10.7348 25.5099 10.4804 25.4046 10.2929 25.2171C10.1054 25.0295 10 24.7752 10 24.5099V14.8999L15.88 20.7899C16.1591 21.0726 16.4915 21.2971 16.858 21.4503C17.2245 21.6035 17.6178 21.6824 18.015 21.6824C18.4122 21.6824 18.8055 21.6035 19.172 21.4503C19.5385 21.2971 19.8709 21.0726 20.15 20.7899C20.3332 20.603 20.4359 20.3517 20.4359 20.0899C20.4359 19.8282 20.3332 19.5769 20.15 19.3899C20.0569 19.2947 19.9456 19.219 19.8229 19.1674C19.7001 19.1157 19.5682 19.0891 19.435 19.0891C19.3018 19.0891 19.1699 19.1157 19.0471 19.1674C18.9244 19.219 18.8131 19.2947 18.72 19.3899C18.5331 19.5732 18.2818 19.6758 18.02 19.6758C17.7582 19.6758 17.5069 19.5732 17.32 19.3899L11.41 13.4899H16C16.2652 13.4899 16.5196 13.3846 16.7071 13.1971C16.8946 13.0095 17 12.7552 17 12.4899C17 12.2247 16.8946 11.9704 16.7071 11.7828C16.5196 11.5953 16.2652 11.4899 16 11.4899H11C10.2044 11.4899 9.44129 11.806 8.87868 12.3686C8.31607 12.9312 8 13.6943 8 14.4899V24.4899C8 25.2856 8.31607 26.0487 8.87868 26.6113C9.44129 27.1739 10.2044 27.4899 11 27.4899H25C25.7956 27.4899 26.5587 27.1739 27.1213 26.6113C27.6839 26.0487 28 25.2856 28 24.4899V17.4899C28 17.2247 27.8946 16.9704 27.7071 16.7828C27.5196 16.5953 27.2652 16.4899 27 16.4899V16.5099Z" fill="#CF6D16"/>
</svg>
