<svg width="12" height="7" viewBox="0 0 12 7" fill="none" xmlns="http://www.w3.org/2000/svg">
<path d="M10.9999 0.669943C10.8126 0.483692 10.5591 0.37915 10.2949 0.37915C10.0308 0.37915 9.77731 0.483692 9.58995 0.669943L5.99995 4.20994L2.45995 0.669943C2.27259 0.483692 2.01913 0.37915 1.75495 0.37915C1.49076 0.37915 1.23731 0.483692 1.04995 0.669943C0.95622 0.762906 0.881826 0.873507 0.831057 0.995366C0.780288 1.11723 0.75415 1.24793 0.75415 1.37994C0.75415 1.51195 0.780288 1.64266 0.831057 1.76452C0.881826 1.88638 0.95622 1.99698 1.04995 2.08994L5.28995 6.32994C5.38291 6.42367 5.49351 6.49806 5.61537 6.54883C5.73723 6.5996 5.86794 6.62574 5.99995 6.62574C6.13196 6.62574 6.26267 6.5996 6.38453 6.54883C6.50638 6.49806 6.61699 6.42367 6.70995 6.32994L10.9999 2.08994C11.0937 1.99698 11.1681 1.88638 11.2188 1.76452C11.2696 1.64266 11.2957 1.51195 11.2957 1.37994C11.2957 1.24793 11.2696 1.11723 11.2188 0.995366C11.1681 0.873507 11.0937 0.762906 10.9999 0.669943Z" fill="#B3B3B3"/>
</svg>
