<svg width="16" height="17" viewBox="0 0 16 17" fill="none" xmlns="http://www.w3.org/2000/svg">
<path d="M7.99988 2.66797C7.71676 2.66798 7.44315 2.77032 7.23035 2.95703L3.23035 6.45703V6.45801C3.1059 6.56734 3.00577 6.70167 2.93738 6.85254C2.869 7.0034 2.8331 7.16737 2.83289 7.33301V13.167C2.83297 13.4761 2.95619 13.7725 3.17468 13.9912C3.39346 14.21 3.69048 14.333 3.99988 14.333H5.83289V10.5C5.83289 10.1023 5.99116 9.72074 6.27234 9.43945C6.55355 9.15824 6.9352 9.0001 7.33289 9H8.66687C9.0646 9.00007 9.44617 9.15821 9.72742 9.43945C10.0086 9.72074 10.1669 10.1022 10.1669 10.5V14.333H11.9999C12.3093 14.333 12.6063 14.21 12.8251 13.9912C13.0436 13.7725 13.1668 13.4762 13.1669 13.167V7.33301L13.16 7.20898C13.1468 7.08598 13.1137 6.96569 13.0624 6.85254C12.9941 6.70183 12.8946 6.56727 12.7704 6.45801L12.7694 6.45703L8.76941 2.95703C8.5566 2.77034 8.28299 2.66797 7.99988 2.66797ZM7.33289 9.33301C7.02374 9.33311 6.72734 9.45629 6.50867 9.6748C6.28988 9.8936 6.16687 10.1906 6.16687 10.5V14.333H9.83289V10.5C9.83288 10.1906 9.70988 9.8936 9.49109 9.6748C9.27239 9.4563 8.97603 9.33308 8.66687 9.33301H7.33289ZM2.49988 7.33594C2.4982 7.12291 2.54161 6.91161 2.62781 6.7168C2.71401 6.52204 2.84113 6.34805 2.99988 6.20605L2.9989 6.20508L6.99597 2.70312L6.99988 2.69922C7.27487 2.45327 7.63095 2.3174 7.99988 2.31738C8.3688 2.31738 8.72488 2.4533 8.99988 2.69922L9.00378 2.70312L12.9999 6.20508V6.20605C13.1581 6.34753 13.2848 6.52091 13.371 6.71484C13.4571 6.90875 13.5009 7.11887 13.4999 7.33105V13.167C13.4998 13.5647 13.3417 13.9463 13.0604 14.2275C12.7791 14.5087 12.3976 14.667 11.9999 14.667H3.99988C3.60214 14.667 3.22061 14.5087 2.93933 14.2275C2.6581 13.9463 2.49996 13.5647 2.49988 13.167V7.33594Z" fill="black" stroke="#F5AF00"/>
</svg>
