<svg width="36" height="36" viewBox="0 0 36 36" fill="none" xmlns="http://www.w3.org/2000/svg">
<rect width="36" height="36" rx="18" fill="white"/>
<path d="M16.9298 14.9969C17.9237 14.9611 18.8939 15.3015 19.6486 15.9481C19.6959 15.9989 19.7418 16.0514 19.7843 16.1063L19.8058 16.1327L19.8302 16.1571C19.9251 16.25 19.9792 16.3769 19.9806 16.5096C19.982 16.6423 19.9308 16.7703 19.838 16.8651C19.7452 16.9599 19.6182 17.014 19.4855 17.0155C19.3528 17.0169 19.2249 16.9657 19.13 16.8729L19.1154 16.8583L19.0997 16.8456L18.9796 16.746C18.4176 16.2458 17.6863 15.9779 16.9337 15.9979C16.1745 16.0181 15.4523 16.3292 14.9161 16.8671L10.3761 21.4169C9.81844 21.9747 9.505 22.7316 9.505 23.5204C9.50511 24.3092 9.8183 25.0661 10.3761 25.6239C10.9339 26.1817 11.6908 26.4949 12.4796 26.495C13.2661 26.495 14.0199 26.1824 14.5773 25.6278L14.5782 25.6288L16.3224 23.9325C16.4193 23.8557 16.5416 23.8171 16.6652 23.8251C16.7912 23.8332 16.9095 23.8895 16.9962 23.9813C17.0828 24.0731 17.1319 24.194 17.1329 24.3202C17.1339 24.4459 17.0866 24.567 17.0021 24.66L15.2902 26.3319C14.5357 27.0197 13.5456 27.3916 12.5245 27.37C11.4985 27.3482 10.5208 26.9306 9.79504 26.205C9.06935 25.4793 8.65181 24.5015 8.63 23.4755C8.60836 22.453 8.98045 21.4608 9.67004 20.7059L14.2618 16.1659L14.2648 16.163C14.9732 15.4506 15.9258 15.0332 16.9298 14.9969ZM23.5245 8.50476C24.5782 8.50476 25.5896 8.9214 26.337 9.66394C27.0728 10.4158 27.4814 11.4282 27.4747 12.4803C27.468 13.534 27.0453 14.5423 26.298 15.285L26.296 15.286L21.7462 19.8368C21.0366 20.5475 20.0839 20.9626 19.0802 20.9989C18.0765 21.0352 17.0961 20.6897 16.337 20.0321L16.3253 20.0223L16.1378 19.8505L16.13 19.8427L16.0665 19.7675C16.0111 19.6863 15.9807 19.5898 15.9796 19.4901C15.9783 19.3574 16.0293 19.2295 16.1222 19.1346C16.2151 19.0398 16.342 18.9857 16.4747 18.9843C16.6074 18.9829 16.7354 19.0341 16.8302 19.1268L16.8448 19.1415L16.8595 19.1542L16.9796 19.2538V19.2528C17.5418 19.7536 18.2734 20.0218 19.0265 20.0018C19.6906 19.9841 20.3264 19.7441 20.8341 19.3241L21.0441 19.1327L25.5841 14.5829L25.5831 14.5819C26.1406 14.0242 26.4551 13.2689 26.4552 12.4803C26.4552 11.6914 26.141 10.9347 25.5831 10.3768C25.0252 9.81893 24.2686 9.50476 23.4796 9.50476C22.691 9.50485 21.9348 9.81842 21.3771 10.3759L19.6749 12.0673C19.5782 12.1433 19.458 12.1826 19.3351 12.1747C19.2091 12.1666 19.0908 12.1111 19.004 12.0194C18.9172 11.9276 18.8683 11.8059 18.8673 11.6796C18.8664 11.5549 18.912 11.4344 18.9952 11.3417L20.7091 9.66785L20.712 9.66492C21.4595 8.92212 22.4708 8.50487 23.5245 8.50476Z" fill="#999999" stroke="#999999"/>
</svg>
