<svg width="36" height="36" viewBox="0 0 36 36" fill="none" xmlns="http://www.w3.org/2000/svg">
<rect width="36" height="36" rx="18" fill="white"/>
<path d="M24.6593 9.66834C24.5499 9.66827 24.4415 9.68978 24.3404 9.73164C24.2392 9.7735 24.1473 9.83488 24.0699 9.91227C23.9926 9.98967 23.9312 10.0816 23.8893 10.1827C23.8475 10.2838 23.8259 10.3922 23.826 10.5017V11.0323C23.1232 11.9037 22.2349 12.6074 21.2258 13.0923C20.2167 13.5771 19.1122 13.8308 17.9927 13.835H12.9927C12.3299 13.8357 11.6944 14.0993 11.2257 14.568C10.757 15.0367 10.4934 15.6722 10.4927 16.335V18.0017C10.4934 18.6645 10.757 19.3 11.2257 19.7686C11.6944 20.2373 12.3299 20.5009 12.9927 20.5017H13.3958L11.3936 25.1737C11.3391 25.3004 11.3171 25.4386 11.3293 25.576C11.3415 25.7134 11.3876 25.8455 11.4635 25.9607C11.5395 26.0758 11.6428 26.1703 11.7642 26.2356C11.8857 26.3009 12.0214 26.3351 12.1593 26.335H15.4927C15.6558 26.3351 15.8154 26.2872 15.9515 26.1974C16.0877 26.1075 16.1944 25.9797 16.2585 25.8296L18.5283 20.5333C19.5538 20.6086 20.553 20.8934 21.4642 21.3699C22.3754 21.8465 23.1792 22.5048 23.826 23.3042V23.835C23.826 24.056 23.9138 24.268 24.0701 24.4243C24.2264 24.5805 24.4383 24.6683 24.6593 24.6683C24.8804 24.6683 25.0923 24.5805 25.2486 24.4243C25.4049 24.268 25.4927 24.056 25.4927 23.835V10.5017C25.4927 10.3922 25.4712 10.2838 25.4294 10.1827C25.3875 10.0816 25.3261 9.98967 25.2487 9.91227C25.1713 9.83488 25.0795 9.7735 24.9783 9.73164C24.8772 9.68978 24.7688 9.66827 24.6593 9.66834ZM12.9927 18.835C12.7717 18.8349 12.5598 18.747 12.4036 18.5908C12.2473 18.4345 12.1595 18.2226 12.1593 18.0017V16.335C12.1595 16.114 12.2473 15.9022 12.4036 15.7459C12.5598 15.5897 12.7717 15.5018 12.9927 15.5017H13.826V18.835H12.9927ZM14.9434 24.6683H13.4232L15.2087 20.5017H16.7288L14.9434 24.6683ZM23.826 20.9365C22.1829 19.5829 20.1216 18.8402 17.9927 18.835H15.4927V15.5016H17.9927C20.1216 15.4962 22.1829 14.7534 23.826 13.3997V20.9365Z" fill="#999999"/>
</svg>
