<svg width="22" height="22" viewBox="0 0 22 22" fill="none" xmlns="http://www.w3.org/2000/svg">
<path d="M5.04159 16.0416H3.66659V5.95825H10.8166L10.0833 6.68241C9.91064 6.85381 9.81318 7.08675 9.81233 7.33001C9.81147 7.57326 9.90727 7.80688 10.0787 7.9795C10.2501 8.15211 10.483 8.24956 10.7263 8.25042C10.9695 8.25128 11.2031 8.15548 11.3758 7.98408L13.6674 5.69241C13.7533 5.6072 13.8215 5.50581 13.8681 5.39411C13.9146 5.2824 13.9386 5.16259 13.9386 5.04158C13.9386 4.92057 13.9146 4.80075 13.8681 4.68905C13.8215 4.57735 13.7533 4.47596 13.6674 4.39075L11.3758 2.09908C11.204 1.92835 10.9717 1.83252 10.7295 1.83252C10.4873 1.83252 10.255 1.92835 10.0833 2.09908C9.99733 2.1843 9.92914 2.28568 9.8826 2.39738C9.83606 2.50909 9.8121 2.6289 9.8121 2.74991C9.8121 2.87092 9.83606 2.99074 9.8826 3.10244C9.92914 3.21415 9.99733 3.31553 10.0833 3.40075L10.8074 4.12491H2.74992C2.5068 4.12491 2.27365 4.22149 2.10174 4.3934C1.92983 4.56531 1.83325 4.79846 1.83325 5.04158V16.9582C1.83325 17.2014 1.92983 17.4345 2.10174 17.6064C2.27365 17.7783 2.5068 17.8749 2.74992 17.8749H5.04159C5.2847 17.8749 5.51786 17.7783 5.68977 17.6064C5.86167 17.4345 5.95825 17.2014 5.95825 16.9582C5.95825 16.7151 5.86167 16.482 5.68977 16.3101C5.51786 16.1382 5.2847 16.0416 5.04159 16.0416ZM19.2499 4.12491H16.9583C16.7151 4.12491 16.482 4.22149 16.3101 4.3934C16.1382 4.56531 16.0416 4.79846 16.0416 5.04158C16.0416 5.28469 16.1382 5.51785 16.3101 5.68976C16.482 5.86167 16.7151 5.95825 16.9583 5.95825H18.3333V16.0416H10.6608L11.3849 15.3174C11.4708 15.2322 11.539 15.1308 11.5856 15.0191C11.6321 14.9074 11.6561 14.7876 11.6561 14.6666C11.6561 14.5456 11.6321 14.4258 11.5856 14.3141C11.539 14.2023 11.4708 14.101 11.3849 14.0157C11.2132 13.845 10.9808 13.7492 10.7387 13.7492C10.4965 13.7492 10.2642 13.845 10.0924 14.0157L7.80075 16.3074C7.71483 16.3926 7.64664 16.494 7.6001 16.6057C7.55356 16.7174 7.5296 16.8372 7.5296 16.9582C7.5296 17.0793 7.55356 17.1991 7.6001 17.3108C7.64664 17.4225 7.71483 17.5239 7.80075 17.6091L10.0924 19.9007C10.265 20.0721 10.4987 20.1679 10.7419 20.1671C10.9852 20.1662 11.2181 20.0688 11.3895 19.8962C11.5609 19.7236 11.6567 19.4899 11.6558 19.2467C11.655 19.0034 11.5575 18.7705 11.3849 18.5991L10.6608 17.8749H19.2499C19.493 17.8749 19.7262 17.7783 19.8981 17.6064C20.07 17.4345 20.1666 17.2014 20.1666 16.9582V5.04158C20.1666 4.79846 20.07 4.56531 19.8981 4.3934C19.7262 4.22149 19.493 4.12491 19.2499 4.12491Z" fill="#E6E6E6"/>
</svg>
