<svg width="16" height="17" viewBox="0 0 16 17" fill="none" xmlns="http://www.w3.org/2000/svg">
<path d="M3.33337 2.33325H12.6664C12.7106 2.33325 12.7533 2.35082 12.7845 2.38208C12.8158 2.41334 12.8334 2.45604 12.8334 2.50024V14.3333H14.0004C14.0444 14.3333 14.0864 14.351 14.1176 14.3821C14.1488 14.4133 14.1664 14.456 14.1664 14.5002C14.1663 14.5443 14.1487 14.5863 14.1176 14.6174C14.0864 14.6486 14.0445 14.6662 14.0004 14.6663H2.00037C1.95616 14.6663 1.91346 14.6487 1.8822 14.6174C1.85113 14.5863 1.83346 14.5443 1.83337 14.5002C1.83337 14.456 1.85095 14.4133 1.8822 14.3821C1.91346 14.3508 1.95616 14.3333 2.00037 14.3333H3.16638V2.50024C3.16638 2.45612 3.18406 2.41332 3.21521 2.38208C3.2309 2.36639 3.24977 2.35425 3.2699 2.34595L3.33337 2.33325ZM3.50037 14.3333H6.50037V10.5002C6.50037 10.456 6.51794 10.4133 6.54919 10.3821C6.58036 10.351 6.62237 10.3333 6.66638 10.3333H9.33337C9.37758 10.3333 9.42028 10.3508 9.45154 10.3821C9.48269 10.4133 9.50037 10.4561 9.50037 10.5002V14.3333H12.5004V2.66626H3.50037V14.3333ZM6.83337 14.3333H9.16638V10.6663H6.83337V14.3333ZM6.00037 7.66626H6.66638C6.71051 7.66626 6.75331 7.68393 6.78455 7.71509C6.8158 7.74634 6.83337 7.78905 6.83337 7.83325C6.83337 7.87746 6.8158 7.92016 6.78455 7.95142C6.75331 7.98257 6.71051 8.00024 6.66638 8.00024H6.00037C5.95624 8.00024 5.91344 7.98257 5.8822 7.95142C5.85095 7.92016 5.83337 7.87745 5.83337 7.83325C5.83337 7.78905 5.85095 7.74634 5.8822 7.71509C5.91344 7.68393 5.95624 7.66626 6.00037 7.66626ZM9.33337 7.66626H10.0004C10.0443 7.66635 10.0864 7.68411 10.1176 7.71509C10.1488 7.74634 10.1664 7.78905 10.1664 7.83325C10.1664 7.87745 10.1488 7.92016 10.1176 7.95142C10.0864 7.98239 10.0443 8.00016 10.0004 8.00024H9.33337C9.28917 8.00024 9.24647 7.98267 9.21521 7.95142C9.18395 7.92016 9.16638 7.87745 9.16638 7.83325C9.16638 7.78905 9.18395 7.74634 9.21521 7.71509C9.24647 7.68383 9.28917 7.66626 9.33337 7.66626ZM6.00037 5.00024H6.66638C6.71058 5.00024 6.75329 5.01782 6.78455 5.04907C6.81562 5.08024 6.83329 5.12225 6.83337 5.16626C6.83337 5.21046 6.8158 5.25317 6.78455 5.28442C6.75329 5.31568 6.71058 5.33325 6.66638 5.33325H6.00037C5.95616 5.33325 5.91346 5.31568 5.8822 5.28442C5.85095 5.25317 5.83337 5.21046 5.83337 5.16626C5.83346 5.12225 5.85112 5.08024 5.8822 5.04907C5.91346 5.01782 5.95616 5.00024 6.00037 5.00024ZM9.33337 5.00024H10.0004C10.0445 5.00033 10.0864 5.01789 10.1176 5.04907C10.1487 5.08025 10.1663 5.12218 10.1664 5.16626C10.1664 5.21046 10.1488 5.25317 10.1176 5.28442C10.0864 5.3155 10.0444 5.33317 10.0004 5.33325H9.33337C9.28917 5.33325 9.24647 5.31568 9.21521 5.28442C9.18406 5.25318 9.16638 5.21039 9.16638 5.16626C9.16647 5.12233 9.18423 5.08022 9.21521 5.04907C9.24647 5.01782 9.28917 5.00024 9.33337 5.00024Z" fill="black" stroke="#F5AF00"/>
</svg>
