<svg width="16" height="16" viewBox="0 0 16 16" fill="none" xmlns="http://www.w3.org/2000/svg">
<path d="M3.33337 1.83325H12.6664C12.7106 1.83325 12.7533 1.85082 12.7845 1.88208C12.8158 1.91334 12.8334 1.95604 12.8334 2.00024V13.8333H14.0004C14.0444 13.8333 14.0864 13.851 14.1176 13.8821C14.1488 13.9133 14.1664 13.956 14.1664 14.0002C14.1663 14.0443 14.1487 14.0863 14.1176 14.1174C14.0864 14.1486 14.0445 14.1662 14.0004 14.1663H2.00037C1.95616 14.1663 1.91346 14.1487 1.8822 14.1174C1.85113 14.0863 1.83346 14.0443 1.83337 14.0002C1.83337 13.956 1.85095 13.9133 1.8822 13.8821C1.91346 13.8508 1.95616 13.8333 2.00037 13.8333H3.16638V2.00024C3.16638 1.95612 3.18406 1.91332 3.21521 1.88208C3.24647 1.85082 3.28917 1.83325 3.33337 1.83325ZM3.50037 13.8333H6.50037V10.0002C6.50037 9.95604 6.51794 9.91334 6.54919 9.88208C6.58036 9.851 6.62237 9.83334 6.66638 9.83325H9.33337C9.37758 9.83325 9.42028 9.85082 9.45154 9.88208C9.48269 9.91332 9.50037 9.95612 9.50037 10.0002V13.8333H12.5004V2.16626H3.50037V13.8333ZM6.83337 13.8333H9.16638V10.1663H6.83337V13.8333ZM6.00037 7.16626H6.66638C6.71051 7.16626 6.75331 7.18393 6.78455 7.21509C6.8158 7.24634 6.83337 7.28905 6.83337 7.33325C6.83337 7.37745 6.8158 7.42016 6.78455 7.45142C6.75331 7.48257 6.71051 7.50024 6.66638 7.50024H6.00037C5.95624 7.50024 5.91344 7.48257 5.8822 7.45142C5.85095 7.42016 5.83337 7.37745 5.83337 7.33325C5.83337 7.28905 5.85095 7.24634 5.8822 7.21509C5.91344 7.18393 5.95624 7.16626 6.00037 7.16626ZM9.33337 7.16626H10.0004C10.0443 7.16635 10.0864 7.18411 10.1176 7.21509C10.1488 7.24634 10.1664 7.28905 10.1664 7.33325C10.1664 7.37745 10.1488 7.42016 10.1176 7.45142C10.0864 7.48239 10.0443 7.50016 10.0004 7.50024H9.33337C9.28917 7.50024 9.24647 7.48267 9.21521 7.45142C9.18395 7.42016 9.16638 7.37745 9.16638 7.33325C9.16638 7.28905 9.18395 7.24634 9.21521 7.21509C9.24647 7.18383 9.28917 7.16626 9.33337 7.16626ZM6.00037 4.50024H6.66638C6.71058 4.50024 6.75329 4.51782 6.78455 4.54907C6.81562 4.58024 6.83329 4.62225 6.83337 4.66626C6.83337 4.71046 6.8158 4.75317 6.78455 4.78442C6.75329 4.81568 6.71058 4.83325 6.66638 4.83325H6.00037C5.95616 4.83325 5.91346 4.81568 5.8822 4.78442C5.85095 4.75317 5.83337 4.71046 5.83337 4.66626C5.83346 4.62225 5.85112 4.58024 5.8822 4.54907C5.91346 4.51782 5.95616 4.50024 6.00037 4.50024ZM9.33337 4.50024H10.0004C10.0445 4.50033 10.0864 4.51789 10.1176 4.54907C10.1487 4.58025 10.1663 4.62218 10.1664 4.66626C10.1664 4.71046 10.1488 4.75317 10.1176 4.78442C10.0864 4.8155 10.0444 4.83317 10.0004 4.83325H9.33337C9.28917 4.83325 9.24647 4.81568 9.21521 4.78442C9.18406 4.75318 9.16638 4.71039 9.16638 4.66626C9.16647 4.62233 9.18423 4.58022 9.21521 4.54907C9.24647 4.51782 9.28917 4.50024 9.33337 4.50024Z" fill="black" stroke="#737373"/>
</svg>
