<svg width="16" height="16" viewBox="0 0 16 16" fill="none" xmlns="http://www.w3.org/2000/svg">
<path d="M7.99988 2.16797C7.71676 2.16798 7.44315 2.27032 7.23035 2.45703L3.23035 5.95703V5.95801C3.1059 6.06734 3.00577 6.20167 2.93738 6.35254C2.869 6.5034 2.8331 6.66737 2.83289 6.83301V12.667C2.83297 12.9761 2.95619 13.2725 3.17468 13.4912C3.39346 13.71 3.69048 13.833 3.99988 13.833H5.83289V10C5.83289 9.60227 5.99116 9.22074 6.27234 8.93945C6.55355 8.65824 6.9352 8.5001 7.33289 8.5H8.66687C9.0646 8.50007 9.44617 8.65821 9.72742 8.93945C10.0086 9.22074 10.1669 9.60224 10.1669 10V13.833H11.9999C12.3093 13.833 12.6063 13.71 12.8251 13.4912C13.0436 13.2725 13.1668 12.9762 13.1669 12.667V6.83301L13.16 6.70898C13.1468 6.58598 13.1137 6.46569 13.0624 6.35254C12.9941 6.20183 12.8946 6.06727 12.7704 5.95801L12.7694 5.95703L8.76941 2.45703C8.5566 2.27034 8.28299 2.16797 7.99988 2.16797ZM7.33289 8.83301C7.02375 8.83311 6.72734 8.95629 6.50867 9.1748C6.28988 9.3936 6.16687 9.69058 6.16687 10V13.833H9.83289V10C9.83288 9.69058 9.70988 9.3936 9.49109 9.1748C9.27239 8.9563 8.97603 8.83308 8.66687 8.83301H7.33289ZM2.49988 6.83594C2.4982 6.62291 2.54161 6.41161 2.62781 6.2168C2.71401 6.02204 2.84113 5.84804 2.99988 5.70605L2.9989 5.70508L6.99597 2.20312L6.99988 2.19922C7.27487 1.95327 7.63095 1.8174 7.99988 1.81738C8.3688 1.81738 8.72488 1.9533 8.99988 2.19922L9.00378 2.20312L12.9999 5.70508V5.70605C13.1581 5.84753 13.2848 6.02091 13.371 6.21484C13.4571 6.40875 13.5009 6.61887 13.4999 6.83105V12.667C13.4998 13.0647 13.3417 13.4463 13.0604 13.7275C12.7791 14.0087 12.3976 14.167 11.9999 14.167H3.99988C3.60214 14.167 3.22061 14.0087 2.93933 13.7275C2.6581 13.4463 2.49996 13.0647 2.49988 12.667V6.83594Z" fill="#737373" stroke="#737373"/>
</svg>
