<svg width="25" height="32" viewBox="0 0 25 32" fill="none" xmlns="http://www.w3.org/2000/svg">
<circle cx="12.5" cy="19.9402" r="11.5" fill="#CFE4F4" stroke="white"/>
<path d="M13.75 17.4402H14.375C14.5408 17.4402 14.6997 17.3743 14.8169 17.2571C14.9342 17.1399 15 16.9809 15 16.8152C15 16.6494 14.9342 16.4905 14.8169 16.3732C14.6997 16.256 14.5408 16.1902 14.375 16.1902H13.75C13.5842 16.1902 13.4253 16.256 13.3081 16.3732C13.1908 16.4905 13.125 16.6494 13.125 16.8152C13.125 16.9809 13.1908 17.1399 13.3081 17.2571C13.4253 17.3743 13.5842 17.4402 13.75 17.4402ZM13.75 19.9402H14.375C14.5408 19.9402 14.6997 19.8743 14.8169 19.7571C14.9342 19.6399 15 19.4809 15 19.3152C15 19.1494 14.9342 18.9905 14.8169 18.8732C14.6997 18.756 14.5408 18.6902 14.375 18.6902H13.75C13.5842 18.6902 13.4253 18.756 13.3081 18.8732C13.1908 18.9905 13.125 19.1494 13.125 19.3152C13.125 19.4809 13.1908 19.6399 13.3081 19.7571C13.4253 19.8743 13.5842 19.9402 13.75 19.9402ZM10.625 17.4402H11.25C11.4158 17.4402 11.5747 17.3743 11.6919 17.2571C11.8092 17.1399 11.875 16.9809 11.875 16.8152C11.875 16.6494 11.8092 16.4905 11.6919 16.3732C11.5747 16.256 11.4158 16.1902 11.25 16.1902H10.625C10.4592 16.1902 10.3003 16.256 10.1831 16.3732C10.0658 16.4905 10 16.6494 10 16.8152C10 16.9809 10.0658 17.1399 10.1831 17.2571C10.3003 17.3743 10.4592 17.4402 10.625 17.4402ZM10.625 19.9402H11.25C11.4158 19.9402 11.5747 19.8743 11.6919 19.7571C11.8092 19.6399 11.875 19.4809 11.875 19.3152C11.875 19.1494 11.8092 18.9905 11.6919 18.8732C11.5747 18.756 11.4158 18.6902 11.25 18.6902H10.625C10.4592 18.6902 10.3003 18.756 10.1831 18.8732C10.0658 18.9905 10 19.1494 10 19.3152C10 19.4809 10.0658 19.6399 10.1831 19.7571C10.3003 19.8743 10.4592 19.9402 10.625 19.9402ZM18.125 24.9402H17.5V14.3152C17.5 14.1494 17.4342 13.9905 17.3169 13.8732C17.1997 13.756 17.0408 13.6902 16.875 13.6902H8.125C7.95924 13.6902 7.80027 13.756 7.68306 13.8732C7.56585 13.9905 7.5 14.1494 7.5 14.3152V24.9402H6.875C6.70924 24.9402 6.55027 25.006 6.43306 25.1232C6.31585 25.2405 6.25 25.3994 6.25 25.5652C6.25 25.7309 6.31585 25.8899 6.43306 26.0071C6.55027 26.1243 6.70924 26.1902 6.875 26.1902H18.125C18.2908 26.1902 18.4497 26.1243 18.5669 26.0071C18.6842 25.8899 18.75 25.7309 18.75 25.5652C18.75 25.3994 18.6842 25.2405 18.5669 25.1232C18.4497 25.006 18.2908 24.9402 18.125 24.9402ZM13.125 24.9402H11.875V22.4402H13.125V24.9402ZM16.25 24.9402H14.375V21.8152C14.375 21.6494 14.3092 21.4905 14.1919 21.3732C14.0747 21.256 13.9158 21.1902 13.75 21.1902H11.25C11.0842 21.1902 10.9253 21.256 10.8081 21.3732C10.6908 21.4905 10.625 21.6494 10.625 21.8152V24.9402H8.75V14.9402H16.25V24.9402Z" fill="#081743"/>
<circle cx="12.5" cy="5.94019" r="4.5" fill="#081743" stroke="white"/>
<g clip-path="url(#clip0_8_1330)">
<path d="M12.5009 4.06395L12.5009 5.93895L14.1816 7.86011" stroke="white" stroke-linecap="round"/>
</g>
<defs>
<clipPath id="clip0_8_1330">
<rect width="7.14286" height="7.14286" fill="white" transform="translate(8.92969 2.36792)"/>
</clipPath>
</defs>
</svg>
